<svg xmlns="http://www.w3.org/2000/svg" width="180" height="27.071"><g fill="#0686D4"><path d="M52.395.502v14.675c0 6.714-4.208 11.894-11.997 11.894-7.82 0-11.963-5.18-11.963-11.894V.502h6.681v14.271c0 3.777 1.808 5.85 5.282 5.85 3.507 0 5.346-2.072 5.346-5.85V.502h6.651zM17.31 26.572v-14.27c0-3.781-1.835-5.851-5.345-5.851-3.477 0-5.279 2.07-5.279 5.851v14.27H0V11.896C0 5.182 4.145 0 11.964 0c7.787 0 11.997 5.182 11.997 11.896v14.675H17.31zM109.944.502v26.069h-6.678V.502h6.678zM150.884.502v26.069h-6.683V.502h6.683zM86.11 0c-3.741 0-6.629 1.195-8.638 3.17C75.455 1.195 72.557 0 68.83 0c-7.818 0-11.96 5.182-11.96 11.896v14.675h6.683v-14.27c0-3.781 1.806-5.851 5.277-5.851 3.291 0 5.115 1.821 5.326 5.16 0 .096-.007.188-.007.286v14.675h6.678v-14.27c0-3.781 1.808-5.851 5.282-5.851 3.508 0 5.349 2.07 5.349 5.851v14.27h6.651V11.896C98.11 5.182 93.891 0 86.11 0zM132.41 26.572v-14.27c0-3.781-1.852-5.851-5.351-5.851-3.475 0-5.289 2.07-5.289 5.851v14.27h-6.676V11.896C115.095 5.182 119.238 0 127.06 0c7.782 0 11.99 5.182 11.99 11.896v14.675h-6.64zM180 4.86V.502h-6.656v3.955c0 3.765-1.822 5.837-5.313 5.848h-.055c-3.453-.01-5.25-2.083-5.25-5.848V.502h-6.69V4.86c0 3.467 1.109 6.523 3.257 8.67-2.147 2.144-3.257 5.202-3.257 8.669v4.372h6.69v-3.977c0-3.758 1.79-5.82 5.241-5.837h.075c3.48.017 5.303 2.079 5.303 5.837v3.977H180V22.2c0-3.468-1.125-6.525-3.279-8.669C178.875 11.383 180 8.327 180 4.86z"/></g></svg>